<?xml version="1.0" standalone="no"?>
<!DOCTYPE svg PUBLIC "-//W3C//DTD SVG 20010904//EN"
 "http://www.w3.org/TR/2001/REC-SVG-20010904/DTD/svg10.dtd">
<svg version="1.0" xmlns="http://www.w3.org/2000/svg"
 width="128.000000pt" height="128.000000pt" viewBox="0 0 128.000000 128.000000"
 preserveAspectRatio="xMidYMid meet">
<metadata>
Created by potrace 1.11, written by Peter Selinger 2001-2013
</metadata>
<g transform="translate(0.000000,128.000000) scale(0.100000,-0.100000)"
fill="#000000" stroke="none">
<path d="M563 1229 c-32 -28 -65 -67 -73 -86 -11 -26 -20 -33 -35 -29 -31 8
-176 -38 -187 -59 -14 -24 7 -150 31 -191 18 -30 18 -31 0 -56 -10 -14 -21
-49 -25 -79 -3 -30 -7 -65 -9 -78 -7 -43 10 -58 92 -77 43 -9 90 -16 106 -15
15 1 27 -3 27 -9 0 -6 27 -37 60 -67 l60 -56 -1 -176 0 -176 -22 55 c-26 67
-109 202 -153 250 -18 19 -43 47 -56 61 -23 25 -100 88 -127 104 -8 4 0 -12
16 -36 37 -53 141 -237 170 -299 44 -94 63 -139 63 -152 0 -8 7 -23 15 -35 14
-20 24 -22 123 -21 59 0 112 4 119 10 6 5 15 24 19 41 10 51 97 227 176 360
90 150 88 145 47 116 -107 -76 -246 -253 -302 -384 l-26 -60 -1 177 c0 150 2
178 16 186 30 17 104 95 104 109 0 12 7 13 28 8 38 -10 39 -10 122 10 84 20
101 34 95 79 -3 17 -7 53 -10 81 -5 44 -12 60 -50 111 -6 8 -5 21 2 36 14 27
37 134 35 162 -1 23 -15 33 -66 47 -21 6 -50 15 -65 21 -14 6 -39 10 -56 9
-24 -2 -32 3 -42 27 -15 32 -107 116 -140 126 -17 5 -34 -4 -80 -45z"/>
</g>
</svg>
